/* XPM */
static char *_33700827b554788bcbd45af3cdfc5a2cRYNtfKyQRY8upDk[] = {
/* columns rows colors chars-per-pixel */
"32 32 15 1 ",
"  c None",
". c #211F30",
"X c #843346",
"o c #A14744",
"O c #B96E54",
"+ c #E68D41",
"@ c #CF9E6E",
"# c #F2BC7E",
"$ c #EA71BD",
"% c #2FACDA",
"& c #6CD9F1",
"* c #E4C997",
"= c #FBDFB1",
"- c #F89CC0",
"; c white",
/* pixels */
"            .   .   .   .       ",
"           .&. .-. .&. .-.      ",
"          .%&&.$--.%&&.$--.     ",
"        ...%&&.$--.%&&.$--...   ",
"       .--.%&&.$--.%&&.$--.&&.  ",
"       .--$.%...$...%...$.%&&.  ",
"        .$$...............%%.   ",
"         ..oX**@.oXOO@.@**..    ",
"        .+.oX@@@.oXOO@.@@@.     ",
"       .#+.OXXX@.oXOOO.@XX.     ",
"       .#+.OX;;X.oXOO@.X;;.     ",
"      .##+.OX;;X.oXOOO.X;;.     ",
"      .##+.OXXX..oXOOO..XX.     ",
"      .##+.OX@.;.oXOOO.;.@.     ",
"      .##+.OX@.X.XXooo.o.@.     ",
"      .+#+.OX@.XX.....Xo.@.     ",
"       .#+.oX@.;;;X;;;;;.@.     ",
"       .++.oXO@.........@O.     ",
"        .++.oXOOOOOOOOOOO.      ",
"         ..+.............       ",
"          .#++++++++++.         ",
"         .#############.        ",
"        .#########=#==#..       ",
"       .############==#.+.      ",
"       .##+.###########.+.      ",
"       .++.#############..      ",
"        ..+###.......###.       ",
"         .+###.    .+##+.       ",
"         .+##.     .+++.        ",
"         .+#+.      ...         ",
"         .++.                   ",
"          ..                    "
};
