/* XPM */
static char * coin_xpm[] = {
"28 32 101 2",
"  	c None",
". 	c #000000",
"+ 	c #725546",
"@ 	c #7A5B4A",
"# 	c #785A49",
"$ 	c #705647",
"% 	c #D4A286",
"& 	c #EAB293",
"* 	c #E9B192",
"= 	c #D4A186",
"- 	c #6F5344",
"; 	c #55020D",
"> 	c #9A5948",
", 	c #EEA886",
"' 	c #FFBA95",
") 	c #FFB994",
"! 	c #FFBA94",
"~ 	c #EFAD8A",
"{ 	c #A47860",
"] 	c #550213",
"^ 	c #AE1629",
"/ 	c #DC593F",
"( 	c #F98B51",
"_ 	c #FF9957",
": 	c #FF9656",
"< 	c #FB9C67",
"[ 	c #EFAD8B",
"} 	c #D3A186",
"| 	c #601213",
"1 	c #942E20",
"2 	c #DB5134",
"3 	c #FC6C36",
"4 	c #FF8132",
"5 	c #FF8C3C",
"6 	c #FF9350",
"7 	c #FF9657",
"8 	c #FFB287",
"9 	c #5E0B14",
"0 	c #B52C2E",
"a 	c #DF5533",
"b 	c #F77834",
"c 	c #FF8434",
"d 	c #FF8733",
"e 	c #FF9751",
"f 	c #FFB187",
"g 	c #FFB995",
"h 	c #FFB087",
"i 	c #FF934F",
"j 	c #735646",
"k 	c #630C16",
"l 	c #CB3233",
"m 	c #F65F38",
"n 	c #FE8234",
"o 	c #FD8734",
"p 	c #F57D35",
"q 	c #F58C54",
"r 	c #FDAF88",
"s 	c #FFB38B",
"t 	c #FF9E68",
"u 	c #620C15",
"v 	c #C83133",
"w 	c #F35E38",
"x 	c #F58036",
"y 	c #CF5B3D",
"z 	c #CF614A",
"A 	c #F58C53",
"B 	c #FF9E66",
"C 	c #F27E37",
"D 	c #BF4A43",
"E 	c #BF4940",
"F 	c #F27B35",
"G 	c #FF8933",
"H 	c #C04B42",
"I 	c #BF4A42",
"J 	c #C04A42",
"K 	c #F37E37",
"L 	c #CF5C3F",
"M 	c #CB5740",
"N 	c #E97639",
"O 	c #F58136",
"P 	c #E9753A",
"Q 	c #FF9651",
"R 	c #FF8833",
"S 	c #F57C35",
"T 	c #DB5034",
"U 	c #FC6D37",
"V 	c #FD8534",
"W 	c #FFB288",
"X 	c #AE172E",
"Y 	c #FE7F32",
"Z 	c #F98C52",
"` 	c #EFA987",
" .	c #D3A287",
"..	c #F55E37",
"+.	c #E05F3F",
"@.	c #9E5C48",
"#.	c #6F5647",
"$.	c #CB3334",
"%.	c #B52729",
"&.	c #5F0D0D",
"*.	c #5D0B14",
"                                                        ",
"                                                        ",
"            . . . . . . . . . . . . . . . .             ",
"            + @ # # # # # # # # # # # # @ +             ",
"        . $ % & * * * * * * * * * * * * & = - .         ",
"        ; > , ' ) ) ) ) ) ) ) ) ) ) ) ) ! ~ { -         ",
"    . ] ^ / ( _ : : : : : : : : : : : : : < [ } - .     ",
"    | 1 2 3 4 5 6 7 : : : : : : : : 7 6 5 6 8 [ { -     ",
". 9 0 a b c d e f g ) ) ) ) ) ) ) ) g h i 5 6 < ~ = j . ",
". k l m n o p q r ' ) ) ) ) ) ) ) ) ) s t i 5 : ! & @ . ",
". u v w n x y z A _ : : : : : : : : : B s h 6 : ) * # . ",
". u v w n C D E F G G G G G G G G G G : ) g 7 : ) * # . ",
". u v w n C H H C G G G G G G G G G G : ) ) : : ) * # . ",
". u v w n C H H C G G G G G G G G G G : ) ) : : ) * # . ",
". u v w n C H H C G G G G G G G G G G : ) ) : : ) * # . ",
". u v w n C H H C G G G G G G G G G G : ) ) : : ) * # . ",
". u v w n C H H C G G G G G G G G G G : ) ) : : ) * # . ",
". u v w n C H H C G G G G G G G G G G : ) ) : : ) * # . ",
". u v w n C H H C G G G G G G G G G G : ) ) : : ) * # . ",
". u v w n C H H C G G G G G G G G G G : ) ) : : ) * # . ",
". u v w n C I J K G G G G G G G G G G _ ' g 7 : ) * # . ",
". u v w n x L M N K C C C C C C C C F A r f 6 : ) * # . ",
". k l m n o O P M J H H H H H H H H E z q Q 5 : ! & @ . ",
". 9 0 a b c R O L I H H H H H H H H D y S 5 6 < ~ = j . ",
"    | 1 T U c o x C C C C C C C C C C x V e W [ { -     ",
"    . ] X T b n n n n n n n n n n n n n Y Z `  .- .     ",
"        ] 1 a m w w w w w w w w w w w w ..+.@.#.        ",
"        . | 0 l v v v v v v v v v v v v $.%.&..         ",
"            *.k u u u u u u u u u u u u k *.            ",
"            . . . . . . . . . . . . . . . .             ",
"                                                        ",
"                                                        "};
