/* XPM */
static char *e07fcea203414872af63aff4e0282f5e6ACpaWKC6Ng1Poa1[] = {
/* columns rows colors chars-per-pixel */
"14 16 6 1 ",
"  c None",
". c black",
"X c #E64539",
"o c #AD2F45",
"O c #FF8933",
"+ c #FFC2A1",
/* pixels */
"              ",
"   ........   ",
"  .++++++++.  ",
" .XOOOOOOOO+. ",
".XOO++++++OO+.",
".XOoOOOOOO+O+.",
".XOoOOOOOO+O+.",
".XOoOOOOOO+O+.",
".XOoOOOOOO+O+.",
".XOoOOOOOO+O+.",
".XOoOOOOOO+O+.",
".XOOooooooOO+.",
" .XOOOOOOOO+. ",
"  .XXXXXXXX.  ",
"   ........   ",
"              "
};
