/* XPM */
static char *c158778b229a4b4788863ac76a998e55iUTfIHob6kCN8HaS[] = {
/* columns rows colors chars-per-pixel */
"46 56 14 1 ",
"  c None",
". c #6E5967",
"X c #926475",
"o c #AD707B",
"O c #D2727E",
"+ c #5D7889",
"@ c #728896",
"# c #B98080",
"$ c #86A0A8",
"% c #C39490",
"& c #E28989",
"* c #EDA799",
"= c #FBCAAE",
"- c #FAEBCF",
/* pixels */
"         ............................         ",
"       ..=*.*===-=--=*.*===-=---=*.*=..       ",
"     ..*===.==========.===========.===*..     ",
"    .*--===.==========.===========.===--*.    ",
"   .*-====*.*========*.*=========*.*====-*.   ",
"  .*-===*&&.&&&&&&&&&&.&&&&&&&&&&&.&&*===-*.  ",
"  .====*&&O........................O&&*====.  ",
" .*===*&&...XoooooooX..+..XooooooX...&&*===*. ",
" .====&&...Xooooooooo..+..ooooooooX...&&====. ",
".*===*&................+...............&*===*.",
".====&&..XooooooooooX..+...............&&====.",
".====&..Xoo#%%%%%%%#o..@..o#%%%%%%%#oX..&====.",
".*==*&..ooo%%%%%%%%%o..@..o%%%%%%%%%oo..&*==*.",
".......................+......................",
".*==*&....o%%%%%%%%%%o.@.o%%%%%%%%%o....&*==*.",
".====&.+@+.%%%%%%%%%%%.+.%%%%%%%%%%.+@+.&====.",
".-===&.@$@.%%%%%%%%%%%.@.%%%%%%%%%%.@$@.&===-.",
".-===&....o%%%%%%%%%%%.@.%%%%%%%%%%o....&===-.",
".====&.o%%%%%%%%%%%%%o.$.o%%%%%%%%%%%%o.&====.",
".-===&.................$................&===-.",
".====&.................$.o%%%%%%%%%%%%o.&====.",
".====&.XoooooooooooooX.@.%%%%%%%%%%%%%%.&====.",
".====&.ooooooooooooooo.$.%%%%%%%%%%%%%%.&====.",
".*==*&.XoooooooooooooX.@.o%%%%%%%%%%%%o.&*==*.",
".......................@......................",
".*==*&.o%%%%%%%%%%%%%o.+.o%%%%%%%%%%%%o.&*==*.",
".====&.%%%%%%%%%%%%%%%.+.%%%%%%%%%%%%%%.&====.",
".-===&.%%%%%%%%%%%%%o.....o%%%%%%%%%%%%.&===-.",
".-===&.o%%%%%%%%%%%#.$$.$$.#%%%%%%%%%%o.&===-.",
".====&...............@$.@$..............&====.",
".-===&...............@$.@$.o%%%%%%%%%%o.&===-.",
".====&..XooooooooooX.@$.@$.%%%%%%%%%%%%.&====.",
".====&..oooooooooooo.@$.@$.%%%%%%%%%%%%.&====.",
".====&..XooooooooooX.@$.@$.o%%%%%%%%%%o.&====.",
".*==*&...............@$.@$..............&*==*.",
".......o%%%%%%%%%%%o.@$.@$....................",
".*==*&.%%%%%%%%%%%%%.@$.@$.XoooooooooX..&*==*.",
".====&.%%%%%%%%%%%%%.@$.@$.ooooooooooo..&====.",
".-===&.o%%%%%%%%%%%o.@$.@$.XoooooooooX..&===-.",
".-===&...............@$.@$..............&===-.",
".====&.o%%%%%%%%%%%#.+$.+$.#%%%%%%%%%%%.&====.",
".-===&....o%%%%%%%%%o..+..o%%%%%%%%o....&===-.",
".====&.@$@.%%%%%%%%%%#.+.#%%%%%%%%%.@$@.&====.",
".====&.+@+.%%%%%%%%%%%.@.%%%%%%%%%%.+@+.&====.",
".====&....o%%%%%%%%%%o.@.%%%%%%%%%%o....&====.",
".*==*&.................@................&*==*.",
".......XooooooooooooX..+.o%%%%%%%%%%%%o.......",
".*==*&.oooooooooooooo..@.%%%%%%%%%%%%%%.&*==*.",
".====&.XooooooooooooX..+.%%%%%%%%%%%%%%.&====.",
".-===&.................@.o%%%%%%%%%%%%o.&===-.",
".-===&.................+................&===-.",
".====&.o%%%%%%%%%%%%%o.+................&====.",
".*==*&.%%%%%%%%%%%%%%%.+..oooooooooooo..&*==*.",
".&&&&O.o%%%%%%%%%%%%%o.+..XooooooooooX..O&&&&.",
"..............................................",
".............................................."
};
