/* XPM */
static char * exit_xpm[] = {
"26 32 320 2",
"  	c None",
". 	c #B38C85",
"+ 	c #896870",
"@ 	c #B58E86",
"# 	c #B7948A",
"$ 	c #B79F93",
"% 	c #B8A599",
"& 	c #B7988D",
"* 	c #906A71",
"= 	c #AE8580",
"- 	c #B89489",
"; 	c #B8A195",
"> 	c #B7A095",
", 	c #B6A69A",
"' 	c #B59088",
") 	c #A98D88",
"! 	c #E8BBA6",
"~ 	c #F9C8AD",
"{ 	c #AC8882",
"] 	c #FAC9AD",
"^ 	c #FBCAAE",
"/ 	c #FBCDB1",
"( 	c #FBCEB2",
"_ 	c #FBCBAF",
": 	c #C0998D",
"< 	c #F4C3A9",
"[ 	c #FBCFB3",
"} 	c #FAC9AE",
"| 	c #D8A498",
"1 	c #FAD4B9",
"2 	c #FACCB1",
"3 	c #F6BFA7",
"4 	c #A77D7C",
"5 	c #F8C3AA",
"6 	c #F7C1A8",
"7 	c #B98682",
"8 	c #EFB6A1",
"9 	c #AB8481",
"0 	c #FAD0B5",
"a 	c #FAC7AC",
"b 	c #EDA899",
"c 	c #DC8787",
"d 	c #91646F",
"e 	c #AA6F76",
"f 	c #AA6E75",
"g 	c #A96E75",
"h 	c #8D636E",
"i 	c #A46C75",
"j 	c #A86E75",
"k 	c #E8B5A0",
"l 	c #EFAE9D",
"m 	c #D18384",
"n 	c #83606C",
"o 	c #815F6E",
"p 	c #A66D79",
"q 	c #A96E79",
"r 	c #A96E7A",
"s 	c #A96F7A",
"t 	c #9D6976",
"u 	c #6E5C6A",
"v 	c #666A79",
"w 	c #7A5D6B",
"x 	c #A76D79",
"y 	c #AF827F",
"z 	c #F8C7AC",
"A 	c #F9C5AB",
"B 	c #E0928D",
"C 	c #82606B",
"D 	c #785C6A",
"E 	c #83606D",
"F 	c #87616E",
"G 	c #805F6C",
"H 	c #6D5B69",
"I 	c #656B7B",
"J 	c #715A68",
"K 	c #735B69",
"L 	c #6E5967",
"M 	c #B89388",
"N 	c #FBC9AE",
"O 	c #F7C0A8",
"P 	c #AF7177",
"Q 	c #7E5E6D",
"R 	c #A86E7A",
"S 	c #B77F81",
"T 	c #BF8D8C",
"U 	c #BF8E8C",
"V 	c #BE8C8A",
"W 	c #A8717A",
"X 	c #6F5D6B",
"Y 	c #6E7381",
"Z 	c #7B5D6B",
"` 	c #AB797C",
" .	c #B58A88",
"..	c #B68A89",
"+.	c #B48887",
"@.	c #A46F78",
"#.	c #BF998C",
"$.	c #B78581",
"%.	c #89626D",
"&.	c #7C5E6B",
"*.	c #8D6370",
"=.	c #9A757A",
"-.	c #9D797C",
";.	c #926B74",
">.	c #705D6B",
",.	c #6B707E",
"'.	c #7B5E6B",
").	c #9C787C",
"!.	c #906973",
"~.	c #AF8480",
"{.	c #EFB5A1",
"].	c #9D6973",
"^.	c #6C6877",
"/.	c #766674",
"(.	c #B98B8A",
"_.	c #BF918E",
":.	c #BE8F8D",
"<.	c #8F6D76",
"[.	c #6D717F",
"}.	c #B28184",
"|.	c #B9A69A",
"1.	c #F8C2A9",
"2.	c #A16E76",
"3.	c #768792",
"4.	c #767684",
"5.	c #BB8D8B",
"6.	c #C39490",
"7.	c #99787D",
"8.	c #717582",
"9.	c #BB8E8C",
"0.	c #B99D91",
"a.	c #FBCCB0",
"b.	c #A46C74",
"c.	c #A4777D",
"d.	c #AF8585",
"e.	c #BA8D8B",
"f.	c #B98C8A",
"g.	c #8B6B75",
"h.	c #7B828C",
"i.	c #AC7B80",
"j.	c #B89C91",
"k.	c #9F6A72",
"l.	c #745B69",
"m.	c #755C69",
"n.	c #71616E",
"o.	c #7C848E",
"p.	c #996E76",
"q.	c #A98182",
"r.	c #A98282",
"s.	c #A0767B",
"t.	c #A26B73",
"u.	c #A36B73",
"v.	c #A36B78",
"w.	c #AA6F7A",
"x.	c #836572",
"y.	c #777D88",
"z.	c #BF908D",
"A.	c #A67076",
"B.	c #A5797A",
"C.	c #E5B7A1",
"D.	c #DB9F93",
"E.	c #996771",
"F.	c #996775",
"G.	c #A26C77",
"H.	c #A36C77",
"I.	c #A06B77",
"J.	c #7B606F",
"K.	c #737784",
"L.	c #A4747B",
"M.	c #B58A89",
"N.	c #AC7E81",
"O.	c #9B6872",
"P.	c #B38887",
"Q.	c #866571",
"R.	c #686D7D",
"S.	c #B78586",
"T.	c #836C76",
"U.	c #6C6472",
"V.	c #9B777C",
"W.	c #C0908D",
"X.	c #B8A094",
"Y.	c #9F757B",
"Z.	c #A88182",
"`.	c #A88081",
" +	c #A67E80",
".+	c #806974",
"++	c #80959E",
"@+	c #767985",
"#+	c #809099",
"$+	c #9A6F75",
"%+	c #B9A296",
"&+	c #A16B73",
"*+	c #725A68",
"=+	c #7E5E6C",
"-+	c #7F5E6C",
";+	c #7F5F6C",
">+	c #7E5E6B",
",+	c #7D5E6B",
"'+	c #71616F",
")+	c #7D949E",
"!+	c #717280",
"~+	c #7F909A",
"{+	c #A5757C",
"]+	c #B48385",
"^+	c #A56D75",
"/+	c #B9958A",
"(+	c #8B6370",
"_+	c #AC707B",
":+	c #AD707B",
"<+	c #AB6F7A",
"[+	c #7D6472",
"}+	c #B58988",
"|+	c #A77076",
"1+	c #AF8681",
"2+	c #9D6872",
"3+	c #7B5E6C",
"4+	c #906772",
"5+	c #916772",
"6+	c #926872",
"7+	c #926873",
"8+	c #8E6671",
"9+	c #736270",
"0+	c #727380",
"a+	c #7F919A",
"b+	c #86636E",
"c+	c #977579",
"d+	c #98757A",
"e+	c #8F6B74",
"f+	c #9F6972",
"g+	c #906670",
"h+	c #B88888",
"i+	c #BD8E8C",
"j+	c #826A75",
"k+	c #7B5D6C",
"l+	c #8B636F",
"m+	c #8C6370",
"n+	c #8A626F",
"o+	c #B8988D",
"p+	c #A66F76",
"q+	c #C2928F",
"r+	c #866E77",
"s+	c #9F6A76",
"t+	c #8C6972",
"u+	c #937277",
"v+	c #927277",
"w+	c #917177",
"x+	c #927177",
"y+	c #906E75",
"z+	c #776370",
"A+	c #7C949E",
"B+	c #70717F",
"C+	c #7E9099",
"D+	c #7F606D",
"E+	c #8C6872",
"F+	c #8B6871",
"G+	c #8B6872",
"H+	c #80646F",
"I+	c #B89F93",
"J+	c #907078",
"K+	c #9F797D",
"L+	c #C0908E",
"M+	c #C29390",
"N+	c #C1928E",
"O+	c #9F737A",
"P+	c #747480",
"Q+	c #676B7A",
"R+	c #827681",
"S+	c #B98988",
"T+	c #95777C",
"U+	c #A26C74",
"V+	c #B8968B",
"W+	c #A06D76",
"X+	c #738A96",
"Y+	c #6F7886",
"Z+	c #B98D8B",
"`+	c #C1918E",
" @	c #927077",
".@	c #B68786",
"+@	c #B79187",
"@@	c #FBC9AD",
"#@	c #6D5F6D",
"$@	c #7A606D",
"%@	c #B18686",
"&@	c #866671",
"*@	c #727683",
"=@	c #AF8685",
"-@	c #8A6870",
";@	c #AF8B83",
">@	c #A97D7C",
",@	c #87626D",
"'@	c #906473",
")@	c #6A6F7E",
"!@	c #89636E",
"~@	c #B58D86",
"{@	c #F9C7AC",
"]@	c #F4BCA5",
"^@	c #A36B74",
"/@	c #6E5D6B",
"(@	c #6C717F",
"_@	c #B8A69A",
":@	c #986E76",
"<@	c #A78081",
"[@	c #B7938A",
"}@	c #FACAAE",
"|@	c #A66D75",
"1@	c #8B6873",
"2@	c #735B68",
"3@	c #765C69",
"4@	c #A67176",
"5@	c #DF968F",
"6@	c #DB8D8A",
"7@	c #9B6671",
"8@	c #666978",
"9@	c #A46C78",
"0@	c #A56D78",
"a@	c #815F6D",
"b@	c #96636F",
"c@	c #6F5A67",
"d@	c #705A68",
"e@	c #6F5967",
"          . + @ # $ % & * = - ; > , ' + .           ",
"      ) ! ~ { ] ^ / ( _ : < ^ / / [ } { ~ ! )       ",
"    | 1 2 3 4 3 5 5 5 6 7 8 5 5 5 5 3 4 3 2 1 |     ",
"  9 0 a b c d e f f e g h i j e f f e d c b a 0 9   ",
"  k ^ l m n o p q r s t u v w x r q p o n m l ^ k   ",
"y z A B C D E F F F F G H I J D D D D K L C B A z y ",
"M N O P Q R S T U T V W X Y Z `  ... .+.@.Q P O N M ",
"* #.$.%.&.*.=.-.-.-.-.;.>.,.'.=.-.-.-.).!.&.%.$.#.* ",
"~.< {.].^./.(._._._._.:.<.[.}._._._._.(./.^.].{.< ~.",
"|.( 1.2.3.4.5.6.6.6.6.6.7.8.9.6.6.6.6.5.4.3.2.1.( |.",
"0.a.1.b.c.d.e.9.9.9.9.f.g.h.i.9.9.9.9.e.d.c.b.1.a.0.",
"j.a.5 k.l.m.m.m.m.m.m.m.n.o.p.q.q.r.q.q.q.s.t.5 a.j.",
"- ^ 1.u.v.w.w.w.w.w.w.R x.y.e.6.6.6.6.6.6.z.A.1.^ - ",
"B.C.D.E.F.G.G.G.H.G.G.I.J.K.L.M.M... .M. .N.O.D.C.B.",
"B.C.D.O.N. .M. ...M.M.P.Q.R.L.M.M... .M. .N.O.D.C.B.",
"; a.1.A.z.6.6.6.6.6.6.S.T.U.V.W.6.6.6.6.6.z.A.1.a.; ",
"X.a.5 t.Y.Z.`.Z.Z.Z. +.+++@+#+$+q.r.q.q.q.s.t.5 a.X.",
"%+/ 1.&+*+=+-+;+>+-+,+'+)+!+~+{+9.9.9.9.9.]+^+1./ %+",
"/+^ 1.&+(+_+:+:+:+:+<+[+)+!+~+}+6.6.6.6.6.z.|+1.^ /+",
"1+< {.2+3+4+5+6+7+7+8+9+)+0+a+b+c+c+c+d+c+e+f+{.< 1+",
"* #.$.g+h+_._._._._.i+j+)+0+a+k+l+l+m+m+n+l.%.$.#.* ",
"o+_ O p+:.6.6.6.6.6.q+r+)+!+~+s+:+:+:+:+_+(+&+O _ o+",
"|.( 1.t.t+u+v+u+w+x+y+z+A+B+C+D+E+F+E+E+G+H+&+1.( |.",
"I+a.5 &+J+K+L+M+M+M+N+O+P+Q+R+S+M+M+M+L+K+T+U+5 a.I+",
"V+^ 5 W+X+Y+Z+6.6.6.6.`+ @,..@6.6.6.6.Z+Y+X+W+5 ^ V+",
"+@@@3 &+#@$@%@ ...M.M.P.&@*@=@M.M... .%@$@#@&+3 @@+@",
"-@;@>@,@F.G.G.G.H.G.G.'@u )@L.M.M... .M. .N.!@>@;@-@",
"~@{@]@^@v.w.w.w.w.w.w.t /@(@e.6.6.6.6.6.6.z.|+]@{@~@",
"_@( 5 k.l.m.m.m.m.m.m.K /@[.:@<@Z.Z.Z.`.Z.Y.t.5 ( _@",
"[@}@3 |@]+9.9.9.9.9.9.f.1@I 2@;+-+>+;+-+;+3@&+3 }@[@",
"4@5@6@7@]+9.9.9.9.9.9.f.1@8@D 9@x x x x 0@a@b@6@5@4@",
"L J J L c@d@d@d@d@d@d@d@L L L e@e@e@e@e@e@L L J J L "};
