/* XPM */
static char *_9adbd37c2ed40e180b11409f3fd41eb0fTs1p9zgCf0TOpy[] = {
/* columns rows colors chars-per-pixel */
"64 64 2 1 ",
"  c #AABACE",
". c #BCCBD5",
/* pixels */
"................................                                ",
"................................                                ",
"................................                                ",
"................................                                ",
"................................                                ",
".....                      .....     ......................     ",
".....                      .....     ......................     ",
".....                      .....     ......................     ",
".....                      .....     ......................     ",
".....                      .....     ......................     ",
".....                      .....     ......................     ",
".....                      .....     ......................     ",
".....                      .....     ......................     ",
".....                      .....     ......................     ",
".....                      .....     ......................     ",
".....                      .....     ......................     ",
".....                      .....     ......................     ",
".....                      .....     ......................     ",
".....                      .....     ......................     ",
".....                      .....     ......................     ",
".....                      .....     ......................     ",
".....                      .....     ......................     ",
".....                      .....     ......................     ",
".....                      .....     ......................     ",
".....                      .....     ......................     ",
".....                      .....     ......................     ",
".....                      .....     ......................     ",
"................................                                ",
"................................                                ",
"................................                                ",
"................................                                ",
"................................                                ",
"                                ................................",
"                                ................................",
"                                ................................",
"                                ................................",
"                                ................................",
"     ......................     .....                      .....",
"     ......................     .....                      .....",
"     ......................     .....                      .....",
"     ......................     .....                      .....",
"     ......................     .....                      .....",
"     ......................     .....                      .....",
"     ......................     .....                      .....",
"     ......................     .....                      .....",
"     ......................     .....                      .....",
"     ......................     .....                      .....",
"     ......................     .....                      .....",
"     ......................     .....                      .....",
"     ......................     .....                      .....",
"     ......................     .....                      .....",
"     ......................     .....                      .....",
"     ......................     .....                      .....",
"     ......................     .....                      .....",
"     ......................     .....                      .....",
"     ......................     .....                      .....",
"     ......................     .....                      .....",
"     ......................     .....                      .....",
"     ......................     .....                      .....",
"                                ................................",
"                                ................................",
"                                ................................",
"                                ................................",
"                                ................................"
};
