/* XPM */
static char * floor_xpm[] = {
"32 32 9 1",
" 	c #BCCBD5",
".	c #BBCAD4",
"+	c #ABBBCF",
"@	c #AABACE",
"#	c #B8C7D3",
"$	c #B3C3D2",
"%	c #AFBED0",
"&	c #B9C9D4",
"*	c #ADBDCF",
"               .+@@@@@@@@@@@@@@@",
"               .+@@@@@@@@@@@@@@@",
"  #$$$$$$$$$$# .+@%$$$$$$$$$$%@@",
"  $@@@@@@@@@@$ .+@$          $@@",
"  $@@@@@@@@@@$ .+@$          $@@",
"  $@@@@@@@@@@$ .+@$          $@@",
"  $@@@@@@@@@@$ .+@$          $@@",
"  $@@@@@@@@@@$ .+@$          $@@",
"  $@@@@@@@@@@$ .+@$          $@@",
"  $@@@@@@@@@@$ .+@$          $@@",
"  $@@@@@@@@@@$ .+@$          $@@",
"  $@@@@@@@@@@$ .+@$          $@@",
"  $@@@@@@@@@@$ .+@$          $@@",
"  #$$$$$$$$$$# .+@%$$$$$$$$$$%@@",
"               .+@@@@@@@@@@@@@@@",
"...............&*+++++++++++++++",
"+++++++++++++++*&...............",
"@@@@@@@@@@@@@@@+.               ",
"@@%$$$$$$$$$$%@+. #$$$$$$$$$$#  ",
"@@$          $@+. $@@@@@@@@@@$  ",
"@@$          $@+. $@@@@@@@@@@$  ",
"@@$          $@+. $@@@@@@@@@@$  ",
"@@$          $@+. $@@@@@@@@@@$  ",
"@@$          $@+. $@@@@@@@@@@$  ",
"@@$          $@+. $@@@@@@@@@@$  ",
"@@$          $@+. $@@@@@@@@@@$  ",
"@@$          $@+. $@@@@@@@@@@$  ",
"@@$          $@+. $@@@@@@@@@@$  ",
"@@$          $@+. $@@@@@@@@@@$  ",
"@@%$$$$$$$$$$%@+. #$$$$$$$$$$#  ",
"@@@@@@@@@@@@@@@+.               ",
"@@@@@@@@@@@@@@@+.               "};
