/* XPM */
static char * wall_xpm[] = {
"32 32 136 2",
"  	c #4F2432",
". 	c #874745",
"+ 	c #895049",
"@ 	c #7C4445",
"# 	c #762A39",
"$ 	c #894F49",
"% 	c #6C343F",
"& 	c #843C3E",
"* 	c #884F49",
"= 	c #692539",
"- 	c #874844",
"; 	c #8A5A53",
"> 	c #564345",
", 	c #762737",
"' 	c #E45953",
") 	c #E86157",
"! 	c #D65454",
"~ 	c #D3404B",
"{ 	c #B83C51",
"] 	c #E4524E",
"^ 	c #E66157",
"/ 	c #B6304C",
"( 	c #E75B53",
"_ 	c #EB7667",
": 	c #712338",
"< 	c #DF454A",
"[ 	c #E44A4A",
"} 	c #D04149",
"| 	c #AC3048",
"1 	c #E1494A",
"2 	c #482133",
"3 	c #A82B48",
"4 	c #B52E4C",
"5 	c #B42E4B",
"6 	c #782B38",
"7 	c #B42E4C",
"8 	c #B72F4C",
"9 	c #602834",
"0 	c #97303F",
"a 	c #B5304B",
"b 	c #8B313A",
"c 	c #AB3047",
"d 	c #522633",
"e 	c #521E39",
"f 	c #C12B49",
"g 	c #CA2F48",
"h 	c #C82F47",
"i 	c #C92F48",
"j 	c #E2494A",
"k 	c #E04949",
"l 	c #C74046",
"m 	c #B62F4C",
"n 	c #E56257",
"o 	c #531E3A",
"p 	c #C32B49",
"q 	c #CC3048",
"r 	c #D3414B",
"s 	c #E76357",
"t 	c #541E3A",
"u 	c #B02846",
"v 	c #B22C42",
"w 	c #BC2C47",
"x 	c #B42B44",
"y 	c #772B38",
"z 	c #D4414B",
"A 	c #C74144",
"B 	c #AE3A40",
"C 	c #C74244",
"D 	c #CB4146",
"E 	c #792C38",
"F 	c #AC2845",
"G 	c #CD5450",
"H 	c #C12B4A",
"I 	c #CF4149",
"J 	c #9C293E",
"K 	c #AF2A4C",
"L 	c #D2404B",
"M 	c #C02B49",
"N 	c #DC4749",
"O 	c #E2524E",
"P 	c #391F33",
"Q 	c #9C2148",
"R 	c #AD234B",
"S 	c #AB234B",
"T 	c #7D253A",
"U 	c #7F263A",
"V 	c #AD254B",
"W 	c #8C263E",
"X 	c #5F2734",
"Y 	c #832F39",
"Z 	c #97313F",
"` 	c #7A2D38",
" .	c #993E45",
"..	c #AB2F48",
"+.	c #E76358",
"@.	c #E65C54",
"#.	c #581E3A",
"$.	c #85223F",
"%.	c #752538",
"&.	c #A22547",
"*.	c #AE254C",
"=.	c #96313F",
"-.	c #521E3A",
";.	c #BC2A49",
">.	c #952F3F",
",.	c #E56157",
"'.	c #84223F",
").	c #5C2634",
"!.	c #AA3047",
"~.	c #BF2B4A",
"{.	c #DF474A",
"].	c #461E37",
"^.	c #B52848",
"/.	c #CA4146",
"(.	c #B22C43",
"_.	c #C73A4B",
":.	c #792D38",
"<.	c #CC5551",
"[.	c #C52F47",
"}.	c #E0524E",
"|.	c #562234",
"1.	c #A12447",
"2.	c #8B253E",
"3.	c #712538",
"4.	c #592434",
"5.	c #923844",
"6.	c #D75556",
"7.	c #BB274B",
"8.	c #A9214C",
"9.	c #BA284A",
"0.	c #C22B4A",
"a.	c #CF4B53",
"b.	c #834544",
"c.	c #3A1F33",
"d.	c #5D2039",
"e.	c #462132",
"  . + + @ # $ + + + + + + + + % & + + + + + + + + * = - + + ; > ",
", ' ) ) ! ~ ) ) ) ) ) ) ) ) ) { ] ) ) ) ) ) ) ) ) ^ / ( ) ) _ ; ",
": < [ [ } } [ [ [ [ [ [ [ [ [ | 1 [ [ [ [ [ [ [ [ 1 | [ [ [ ( . ",
"2 3 4 5 6 6 5 4 7 8 8 8 8 8 | 9 0 a b b a 8 8 8 8 0 9 | 8 7 c d ",
"e f g g h h g i 4 j j j j j 1 k k j l l j j j j j k k 1 j m n * ",
"o p q q q q q g 5 [ [ [ [ [ [ [ [ [ r r [ [ [ [ [ [ [ [ [ a s $ ",
"t u v w f f f x y } z r A A r z z r B B r z } C D z z z } E l # ",
"t F y } z z z D C } z r B B r z z r A A r z } E l z z z } C G @ ",
"o H 5 [ [ [ [ [ [ [ [ [ r r [ [ [ [ [ [ [ [ [ a j [ [ [ [ [ ) + ",
"o H 5 [ [ [ [ [ [ [ [ [ r r [ [ [ [ [ [ [ [ [ a j [ [ [ [ [ ) $ ",
"t F y I A A r z z z z r B B r z z z z z z z } E l D C } z z ~ # ",
"t u v w J B r z z z z r A A r K L z z z z z } C D l E } z z ! @ ",
"o p q q M r [ [ [ [ [ [ [ [ [ 8 j [ [ [ [ [ [ [ [ j a [ [ [ ) + ",
"e f g g x l j k k 1 j j j j 1 0 N j k k j j j j j N 0 1 1 k O & ",
"P Q R S T U V W X | 8 8 8 8 | Y Z a ` ` a 8 8 8 8 Z Y | | 9  .% ",
"o p q q q q q g ..[ [ [ [ [ [ [ [ [ } } [ [ [ [ [ [ [ [ [ | +.+ ",
"o p q q q q q g ..[ [ [ [ [ [ [ [ [ } } [ [ [ [ [ [ [ [ [ | @.- ",
"#.$.%.&.*.*.*.W X | 8 a b b a 8 8 a ` ` a 8 | Y Z 8 8 8 | 9 =.= ",
"-.;.>.1 j j j k k 1 j j l l j j j j k k j j 1 0 N j j j 1 k ,.* ",
"o H 4 [ [ [ [ [ [ [ [ [ z z [ [ [ [ [ [ [ [ [ 8 j [ [ [ [ [ ) + ",
"o H ..[ [ [ [ [ [ [ [ [ } } [ [ [ [ [ [ [ [ [ | 1 [ [ [ [ [ ( - ",
"#.'.)...4 m 8 8 8 8 8 a ` ` !.Y Z 8 8 8 8 8 | 9 0 8 7 8 8 8 / = ",
"-.M h g ~.L j j j j j j k k 1 0 N j j j j j 1 k k {.m j j j ^ * ",
"o p q q M r [ [ [ [ [ [ [ [ [ a j [ [ [ [ [ [ [ [ j a [ [ [ ) $ ",
"].^.f M J B r D C } z z z z } E l z z z z z z z z l E } } C /.# ",
"].^.f M (.(.M x y } z z z z } C D z _._.z z z z z D C } } :.<.@ ",
"o p q q q q q g 5 [ [ [ [ [ [ [ [ [ z z [ [ [ [ [ [ [ [ [ a s + ",
"-.M h g g g g [.>.1 j j k k j j j j l l j j 1 k k j j j 1 Z }.& ",
"#.'.|.1.R R R 2.%.&.*.V 3.3.V *.*.V U U V *.&.4.W *.*.*.&.%.5.% ",
"o H 1.q q q q q q q q q w w q q q q q q q q q 1.g q q q q q 6.+ ",
"t 7.8.p p p p p p p p p 9.9.p p p p p p p p p 8.0.p p p p p a.b.",
"c.t #.o o o o o o o o o t t o o o o o o o o o #.-.o o o o o d.e."};
